<?xml version="1.0" encoding="UTF-8"?>
<svg width="485px" height="458px" viewBox="0 0 485 458" version="1.1" xmlns="http://www.w3.org/2000/svg" xmlns:xlink="http://www.w3.org/1999/xlink">
    <!-- Generator: Sketch 52.5 (67469) - http://www.bohemiancoding.com/sketch -->
    <title>piggy-bank</title>
    <desc>Created with Sketch.</desc>
    <g id="Page-1" stroke="none" stroke-width="1" fill="none" fill-rule="evenodd" opacity="0.0930292039">
        <g id="piggy-bank" fill="#000000">
            <path d="M449.9,165.2 L441.8,165.2 C430.1,134.6 410.2,106.9 383.5,84.5 C383.5,84.4 383.5,84.4 383.5,84.3 C379.5,70.4 382.5,55.5 392.2,40 C397.2,32 397.5,22.3 392.9,14.1 C388.4,6 379.9,0.9 370.7,0.9 C369.6,0.9 368.5,1 367.5,1.1 C330.4,5.7 308.2,22.6 295.4,38.3 C273.2,32.2 250.2,29.1 226.8,29.1 C166.5,29.1 109.8,49.7 67,87.1 C23.8,124.9 0,175.3 0,229 C0,242.9 1.6,256.8 4.9,270.4 C4.9,270.6 5,270.9 5.1,271.1 C5.1,271.1 5.2,271.3 5.3,271.7 C8.7,285.4 13.7,298.8 20.2,311.5 C30.9,334.8 43.8,354.2 58.3,369.2 C78.9,390.4 82.4,417.2 82.9,428 L82.9,433.3 C82.9,433.6 82.9,433.9 82.9,434.3 C82.9,434.8 82.9,435.3 83,435.7 C84.2,448 94.7,457.5 107.1,457.5 L181.6,457.5 C194.9,457.5 205.8,446.6 205.8,433.3 L205.8,428.3 C217.4,429.2 229.1,429.4 240.8,428.8 L240.8,433.4 C240.8,446.7 251.7,457.6 265,457.6 L339.5,457.6 C352.8,457.6 363.7,446.7 363.7,433.4 L363.7,415.2 C363.8,410.9 365.5,390.5 384.8,372.9 C385.7,372.1 386.7,371.3 387.6,370.5 C387.7,370.4 387.7,370.4 387.8,370.3 C388,370.1 388.3,369.9 388.5,369.7 C413.5,347.3 432.2,320 443,290.2 L450,290.2 C469,290.2 484.5,274.7 484.5,255.7 L484.5,200.1 C484.4,180.7 468.9,165.2 449.9,165.2 Z M460.4,255.3 C460.4,261.1 455.7,265.8 449.9,265.8 L434.3,265.8 C429,265.8 424.4,269.2 422.8,274.3 C413.9,303.3 396.3,330.1 372,351.8 C371.9,351.9 371.9,351.9 371.8,352 L371.7,352.1 C370.8,352.9 369.9,353.7 369,354.5 C368.9,354.6 368.8,354.7 368.7,354.7 C342.5,378.5 339.8,406.5 339.6,414.5 C339.6,414.6 339.6,414.7 339.6,414.8 L339.6,433.2 C339.6,433.3 339.5,433.4 339.4,433.4 L264.9,433.4 C264.8,433.4 264.7,433.3 264.7,433.2 L264.7,415.7 C264.7,412.3 263.3,409.1 260.7,406.8 C258.5,404.8 255.6,403.7 252.7,403.7 C252.3,403.7 251.9,403.7 251.4,403.8 C243.2,404.7 234.9,405.1 226.7,405.1 C216.2,405.1 205.6,404.4 195.3,403 C191.9,402.5 188.4,403.6 185.8,405.9 C183.2,408.2 181.7,411.5 181.7,414.9 L181.7,433.2 C181.7,433.3 181.6,433.4 181.5,433.4 L107,433.4 C106.9,433.4 106.8,433.3 106.8,433.2 L106.8,427.6 C106.8,427.4 106.8,427.2 106.8,427.1 C106.2,413.7 102,379.7 75.4,352.4 C62.7,339.3 51.3,322.1 41.6,301.2 C41.5,301 41.5,300.9 41.4,300.8 C35.7,289.6 31.2,277.9 28.3,265.9 C28.3,265.8 28.2,265.7 28.2,265.6 C28.2,265.5 28.2,265.5 28.2,265.4 C25.3,253.5 23.9,241.3 23.9,229.2 C23.9,132.2 114.9,53.2 226.7,53.2 C250.6,53.2 273.9,56.8 296.1,63.8 C301.2,65.4 306.7,63.5 309.7,59.1 C318.6,45.9 336.3,29.4 370.3,25.1 C371.1,25 371.6,25.5 371.8,25.9 C372.2,26.6 371.9,27.2 371.7,27.4 C358.4,48.6 354.5,70.6 360.3,91 C360.3,91.1 360.4,91.3 360.4,91.4 C360.5,94.9 362.1,98.2 364.9,100.4 C392.1,122.4 411.8,150.3 421.9,181.1 C423.5,186 428.1,189.4 433.3,189.4 L433.4,189.4 L449.8,189.4 C455.6,189.4 460.3,194.1 460.3,199.9 L460.3,255.3 L460.4,255.3 Z" id="Shape" fill-rule="nonzero"></path>
            <path d="M239.8,217 L213,217 C203.4,217 195.6,209.2 195.6,199.6 C195.6,190 203.4,182.2 213,182.2 L260.4,182.2 C267,182.2 272.4,176.8 272.4,170.2 C272.4,163.6 267,158.2 260.4,158.2 L238.5,158.2 L238.5,142.1 C238.5,135.5 233.1,130.1 226.5,130.1 C219.9,130.1 214.5,135.5 214.5,142.1 L214.5,158.2 L213.1,158.2 C190.3,158.2 171.7,176.8 171.7,199.6 C171.7,222.4 190.3,241 213.1,241 L239.9,241 C249.5,241 257.3,248.8 257.3,258.4 C257.3,268 249.5,275.8 239.9,275.8 L191.7,275.8 C185.1,275.8 179.7,281.2 179.7,287.8 C179.7,294.4 185.1,299.8 191.7,299.8 L214.5,299.8 L214.5,316.2 C214.5,322.8 219.9,328.2 226.5,328.2 C233.1,328.2 238.5,322.8 238.5,316.2 L238.5,299.8 L240.2,299.8 C240.3,299.8 240.4,299.8 240.5,299.8 C263.1,299.5 281.4,281 281.4,258.4 C281.2,235.6 262.6,217 239.8,217 Z" id="Path"></path>
        </g>
    </g>
</svg>